<svg width="751" height="166" viewBox="0 0 751 166" fill="none" xmlns="http://www.w3.org/2000/svg">
<path d="M8.5 139C5.375 139 3.8125 137.646 3.8125 134.938V129.812C3.8125 126.938 4.875 124.042 7 121.125L47.625 65V64.5625C45.125 64.7708 42.625 64.875 40.125 64.875H11C7.875 64.875 6.3125 63.5208 6.3125 60.8125V53.4375C6.3125 50.7292 7.875 49.375 11 49.375H68C71.125 49.375 72.6875 50.7292 72.6875 53.4375V57.625C72.6875 59.8333 71.9583 61.9375 70.5 63.9375L27.375 123.375V123.812C29.875 123.604 32.375 123.5 34.875 123.5H69.75C72.875 123.5 74.4375 124.854 74.4375 127.562V134.938C74.4375 137.646 72.875 139 69.75 139H8.5ZM83.25 106.188C83.25 95.6458 85.875 87.3333 91.125 81.25C96.4167 75.1667 103.875 72.125 113.5 72.125C124.667 72.125 132.958 75 138.375 80.75C143.792 86.5 146.5 95.75 146.5 108.5C146.5 111 145.333 112.25 143 112.25H101.75C102.417 119.167 104.125 123.521 106.875 125.312C109.625 127.104 112.812 128 116.438 128C119.896 128 122.542 127.542 124.375 126.625C126.208 125.708 127.75 124.458 129 122.875C130.417 121.042 132.167 120.75 134.25 122L140.5 125.812C142.958 127.312 143.312 129.104 141.562 131.188C139.021 134.229 136.042 136.5 132.625 138C129.208 139.5 123.812 140.25 116.438 140.25C104.479 140.25 95.9583 137.208 90.875 131.125C85.7917 125.042 83.25 116.729 83.25 106.188ZM101.812 99.75H129C129 95.25 127.875 91.5833 125.625 88.75C123.375 85.875 119.792 84.4375 114.875 84.4375C110.958 84.4375 107.854 85.8125 105.562 88.5625C103.271 91.2708 102.021 95 101.812 99.75ZM157.938 85.875C155.479 85.875 154.25 84.8333 154.25 82.75V76.5C154.25 74.4167 155.479 73.375 157.938 73.375H162.188V71.1875C162.188 69.3125 162.625 67.6042 163.5 66.0625L168.312 57.625C169.229 56.0417 170.312 55.25 171.562 55.25H175.938C178.438 55.25 179.688 56.5 179.688 59V73.375H189.812C192.271 73.375 193.5 74.4167 193.5 76.5V82.75C193.5 84.8333 192.271 85.875 189.812 85.875H179.688V116.875C179.688 121.125 179.979 124.188 180.562 126.062C181.188 127.896 182.771 128.812 185.312 128.812C186.604 128.812 188.062 128.604 189.688 128.188C191.312 127.729 192.583 127.292 193.5 126.875C194.958 126.208 195.917 126.688 196.375 128.312L198.25 135.438C198.625 136.854 198.083 137.896 196.625 138.562C195.25 139.188 193.354 139.75 190.938 140.25C188.562 140.792 186.167 141.062 183.75 141.062C177.792 141.062 172.708 139.833 168.5 137.375C164.292 134.917 162.188 129.854 162.188 122.188V85.875H157.938ZM206.5 121.5C206.5 113.167 210.479 107.125 218.438 103.375C226.396 99.625 235.479 97.625 245.688 97.375V94.875C245.688 91.0417 244.729 88.3333 242.812 86.75C240.896 85.1667 238.229 84.375 234.812 84.375C232.396 84.375 230.25 84.7292 228.375 85.4375C226.542 86.1042 224.938 86.8958 223.562 87.8125C222.229 88.6875 221.021 89.5833 219.938 90.5C218.021 92.1667 216.438 92.25 215.188 90.75L210 84.375C208.708 82.7917 209.021 81.1667 210.938 79.5C212.396 78.2083 214.083 77.0833 216 76.125C217.958 75.1667 220.542 74.2708 223.75 73.4375C226.958 72.5625 231.125 72.125 236.25 72.125C244.917 72.125 251.562 74.125 256.188 78.125C260.854 82.125 263.188 88.0208 263.188 95.8125V135.25C263.188 137.75 261.938 139 259.438 139H249.188C246.938 139 245.812 137.75 245.812 135.25V133.375H245.688C243.229 135.75 240.271 137.5 236.812 138.625C233.396 139.708 230.25 140.25 227.375 140.25C220.542 140.25 215.354 138.583 211.812 135.25C208.271 131.875 206.5 127.292 206.5 121.5ZM225 121.125C225 122.583 225.292 123.854 225.875 124.938C226.458 125.979 227.375 126.75 228.625 127.25C229.875 127.75 231.271 128 232.812 128C234.938 128 237 127.708 239 127.125C241 126.542 243.229 125.167 245.688 123V109.438C238.688 110.229 234 111.25 231.625 112.5C229.25 113.75 227.542 115.042 226.5 116.375C225.5 117.708 225 119.292 225 121.125ZM327.75 139C325.25 139 324 137.75 324 135.25V77.125C324 74.625 325.25 73.375 327.75 73.375H337.625C340.125 73.375 341.375 74.625 341.375 77.125V80.75H341.625C343.542 77.4583 345.979 75.2083 348.938 74C351.896 72.75 355.458 72.125 359.625 72.125C366.125 72.125 371.5 74.1667 375.75 78.25C380 82.3333 382.125 89.7917 382.125 100.625V135.25C382.125 137.75 380.875 139 378.375 139H368.375C365.875 139 364.625 137.75 364.625 135.25V105.125C364.625 96.0417 364 90.3125 362.75 87.9375C361.5 85.5625 358.812 84.375 354.688 84.375C350.312 84.375 347.021 86.0833 344.812 89.5C342.604 92.875 341.5 99.9167 341.5 110.625V135.25C341.5 137.75 340.25 139 337.75 139H327.75ZM397.688 134.625C395.646 133.167 395.083 131.604 396 129.938L399.188 124.125C400.312 122.042 402.062 121.792 404.438 123.375C406.812 124.958 409.604 126.125 412.812 126.875C416.062 127.625 419.021 128 421.688 128C423.562 128 425.312 127.812 426.938 127.438C428.562 127.062 429.938 126.333 431.062 125.25C432.188 124.167 432.75 122.583 432.75 120.5C432.75 119.25 432.417 118.188 431.75 117.312C431.083 116.438 430.229 115.771 429.188 115.312C428.146 114.854 427.042 114.479 425.875 114.188C424.333 113.812 422.104 113.188 419.188 112.312C416.312 111.438 413.542 110.417 410.875 109.25C408.667 108.292 406.5 106.958 404.375 105.25C402.292 103.5 400.75 101.562 399.75 99.4375C398.792 97.3125 398.312 94.6875 398.312 91.5625C398.312 87.3542 399.521 83.6667 401.938 80.5C404.396 77.3333 407.562 75.1458 411.438 73.9375C415.312 72.7292 420.146 72.125 425.938 72.125C429.854 72.125 433.667 72.6875 437.375 73.8125C441.083 74.9375 443.729 76 445.312 77C447.812 78.5833 448.438 80.2708 447.188 82.0625L443.375 87.625C442.208 89.2917 440.333 89.4167 437.75 88C435.792 86.9167 433.854 86.0417 431.938 85.375C430.062 84.7083 427.958 84.375 425.625 84.375C424.042 84.375 422.521 84.5417 421.062 84.875C419.604 85.2083 418.354 85.8333 417.312 86.75C416.312 87.6667 415.812 88.875 415.812 90.375C415.812 91.9583 416.271 93.2083 417.188 94.125C418.146 95 419.229 95.6458 420.438 96.0625C421.688 96.4792 422.875 96.875 424 97.25C426.333 98 428.688 98.7292 431.062 99.4375C433.438 100.104 435.854 100.917 438.312 101.875C440.438 102.708 442.5 103.896 444.5 105.438C446.5 106.979 447.958 108.938 448.875 111.312C449.792 113.688 450.25 116.396 450.25 119.438C450.25 123.479 449.042 127.229 446.625 130.688C444.208 134.146 441.021 136.604 437.062 138.062C433.104 139.521 428.5 140.25 423.25 140.25C417.375 140.25 412.375 139.833 408.25 139C404.125 138.167 400.604 136.708 397.688 134.625ZM465.625 139C463.125 139 461.875 137.75 461.875 135.25V77.125C461.875 74.625 463.125 73.375 465.625 73.375H475.625C478.125 73.375 479.375 74.625 479.375 77.125V135.25C479.375 137.75 478.125 139 475.625 139H465.625ZM465.625 63.75C463.125 63.75 461.875 62.5 461.875 60V52C461.875 49.5 463.125 48.25 465.625 48.25H475.625C478.125 48.25 479.375 49.5 479.375 52V60C479.375 62.5 478.125 63.75 475.625 63.75H465.625ZM492.875 106.188C492.875 97.0208 494.854 89.0625 498.812 82.3125C502.812 75.5208 509.708 72.125 519.5 72.125C523.25 72.125 526.458 72.6667 529.125 73.75C531.792 74.8333 534.208 77.1667 536.375 80.75H536.625L536.875 77.125C537.042 74.625 538.167 73.375 540.25 73.375H550.125C552.625 73.375 553.875 74.625 553.875 77.125V138.312C553.875 148.521 551.125 155.562 545.625 159.438C540.125 163.312 532.167 165.25 521.75 165.25C517.333 165.25 513.25 165.021 509.5 164.562C505.75 164.104 501.958 162.958 498.125 161.125C496.125 160.167 495.792 158.354 497.125 155.688L499.375 151.188C500.292 149.354 501.812 148.938 503.938 149.938C505.646 150.729 507.75 151.438 510.25 152.062C512.792 152.688 516 153 519.875 153C525.208 153 529.292 152 532.125 150C534.958 148.042 536.375 143.729 536.375 137.062V136C536.375 134.333 536.458 132.667 536.625 131H536.375C534.208 134.583 531.792 136.917 529.125 138C526.458 139.083 523.25 139.625 519.5 139.625C509.708 139.625 502.812 136.25 498.812 129.5C494.854 122.708 492.875 114.938 492.875 106.188ZM511.375 106.188C511.375 112.438 512.229 117.542 513.938 121.5C515.688 125.417 519.375 127.375 525 127.375C528.125 127.375 530.792 125.625 533 122.125C535.25 118.583 536.375 114 536.375 108.375V103.375C536.375 97.75 535.25 93.1875 533 89.6875C530.792 86.1458 528.125 84.375 525 84.375C519.375 84.375 515.688 86.3542 513.938 90.3125C512.229 94.2292 511.375 99.5208 511.375 106.188ZM574.625 139C572.125 139 570.875 137.75 570.875 135.25V50.5C570.875 48 572.125 46.75 574.625 46.75H584.625C587.125 46.75 588.375 48 588.375 50.5V75.75C588.375 77.4167 588.292 79.0833 588.125 80.75H588.5C590.417 77.4583 592.854 75.2083 595.812 74C598.771 72.75 602.333 72.125 606.5 72.125C613 72.125 618.375 74.1667 622.625 78.25C626.875 82.3333 629 89.7917 629 100.625V135.25C629 137.75 627.75 139 625.25 139H615.25C612.75 139 611.5 137.75 611.5 135.25V105.125C611.5 96.0417 610.875 90.3125 609.625 87.9375C608.375 85.5625 605.688 84.375 601.562 84.375C597.188 84.375 593.896 86.0833 591.688 89.5C589.479 92.875 588.375 99.9167 588.375 110.625V135.25C588.375 137.75 587.125 139 584.625 139H574.625ZM643.688 85.875C641.229 85.875 640 84.8333 640 82.75V76.5C640 74.4167 641.229 73.375 643.688 73.375H647.938V71.1875C647.938 69.3125 648.375 67.6042 649.25 66.0625L654.062 57.625C654.979 56.0417 656.062 55.25 657.312 55.25H661.688C664.188 55.25 665.438 56.5 665.438 59V73.375H675.562C678.021 73.375 679.25 74.4167 679.25 76.5V82.75C679.25 84.8333 678.021 85.875 675.562 85.875H665.438V116.875C665.438 121.125 665.729 124.188 666.312 126.062C666.938 127.896 668.521 128.812 671.062 128.812C672.354 128.812 673.812 128.604 675.438 128.188C677.062 127.729 678.333 127.292 679.25 126.875C680.708 126.208 681.667 126.688 682.125 128.312L684 135.438C684.375 136.854 683.833 137.896 682.375 138.562C681 139.188 679.104 139.75 676.688 140.25C674.312 140.792 671.917 141.062 669.5 141.062C663.542 141.062 658.458 139.833 654.25 137.375C650.042 134.917 647.938 129.854 647.938 122.188V85.875H643.688ZM694.438 134.625C692.396 133.167 691.833 131.604 692.75 129.938L695.938 124.125C697.062 122.042 698.812 121.792 701.188 123.375C703.562 124.958 706.354 126.125 709.562 126.875C712.812 127.625 715.771 128 718.438 128C720.312 128 722.062 127.812 723.688 127.438C725.312 127.062 726.688 126.333 727.812 125.25C728.938 124.167 729.5 122.583 729.5 120.5C729.5 119.25 729.167 118.188 728.5 117.312C727.833 116.438 726.979 115.771 725.938 115.312C724.896 114.854 723.792 114.479 722.625 114.188C721.083 113.812 718.854 113.188 715.938 112.312C713.062 111.438 710.292 110.417 707.625 109.25C705.417 108.292 703.25 106.958 701.125 105.25C699.042 103.5 697.5 101.562 696.5 99.4375C695.542 97.3125 695.062 94.6875 695.062 91.5625C695.062 87.3542 696.271 83.6667 698.688 80.5C701.146 77.3333 704.312 75.1458 708.188 73.9375C712.062 72.7292 716.896 72.125 722.688 72.125C726.604 72.125 730.417 72.6875 734.125 73.8125C737.833 74.9375 740.479 76 742.062 77C744.562 78.5833 745.188 80.2708 743.938 82.0625L740.125 87.625C738.958 89.2917 737.083 89.4167 734.5 88C732.542 86.9167 730.604 86.0417 728.688 85.375C726.812 84.7083 724.708 84.375 722.375 84.375C720.792 84.375 719.271 84.5417 717.812 84.875C716.354 85.2083 715.104 85.8333 714.062 86.75C713.062 87.6667 712.562 88.875 712.562 90.375C712.562 91.9583 713.021 93.2083 713.938 94.125C714.896 95 715.979 95.6458 717.188 96.0625C718.438 96.4792 719.625 96.875 720.75 97.25C723.083 98 725.438 98.7292 727.812 99.4375C730.188 100.104 732.604 100.917 735.062 101.875C737.188 102.708 739.25 103.896 741.25 105.438C743.25 106.979 744.708 108.938 745.625 111.312C746.542 113.688 747 116.396 747 119.438C747 123.479 745.792 127.229 743.375 130.688C740.958 134.146 737.771 136.604 733.812 138.062C729.854 139.521 725.25 140.25 720 140.25C714.125 140.25 709.125 139.833 705 139C700.875 138.167 697.354 136.708 694.438 134.625Z" fill="black"/>
<path d="M269 13V81.75H284.9V138L322 63H300.8L322 13H269Z" fill="black"/>
</svg>
